<?xml version="1.0" encoding="UTF-8"?>
<svg width="43px" height="43px" viewBox="0 0 43 43" version="1.1" xmlns="http://www.w3.org/2000/svg" xmlns:xlink="http://www.w3.org/1999/xlink">
    <!-- Generator: Sketch 51.3 (57544) - http://www.bohemiancoding.com/sketch -->
    <title>4 Calendar</title>
    <desc>Created with Sketch.</desc>
    <defs></defs>
    <g id="Page-1" stroke="none" stroke-width="1" fill="none" fill-rule="evenodd">
        <g id="ATOM-Icons" transform="translate(-541.000000, -3014.000000)">
            <g id="Time" transform="translate(258.000000, 3011.000000)">
                <g id="4-Calendar" transform="translate(283.000000, 3.000000)">
                    <path d="M37.841,36.33 C37.841,36.88 37.391,37.33 36.841,37.33 L6.841,37.33 C6.291,37.33 5.841,36.88 5.841,36.33 L5.841,16.33 C5.841,15.78 6.291,15.33 6.841,15.33 L36.841,15.33 C37.391,15.33 37.841,15.78 37.841,16.33 L37.841,36.33 Z M37.841,5.33 L35.841,5.33 L35.841,3.33 C35.841,1.67 34.501,0.33 32.841,0.33 C31.181,0.33 29.841,1.67 29.841,3.33 L29.841,5.33 L13.841,5.33 L13.841,3.33 C13.841,1.67 12.501,0.33 10.841,0.33 C9.181,0.33 7.841,1.67 7.841,3.33 L7.841,5.33 L5.841,5.33 C3.081,5.33 0.841,7.57 0.841,10.33 L0.841,37.33 C0.841,40.09 3.081,42.33 5.841,42.33 L37.841,42.33 C40.601,42.33 42.841,40.09 42.841,37.33 L42.841,10.33 C42.841,7.57 40.601,5.33 37.841,5.33 Z" id="Fill-54" fill="#D50000"></path>
                    <path d="M14.841,22.33 C14.841,23.44 13.945,24.33 12.841,24.33 C11.736,24.33 10.841,23.44 10.841,22.33 C10.841,21.23 11.736,20.33 12.841,20.33 C13.945,20.33 14.841,21.23 14.841,22.33" id="Fill-55" fill="#D0021B"></path>
                    <path d="M14.841,30.33 C14.841,31.44 13.945,32.33 12.841,32.33 C11.736,32.33 10.841,31.44 10.841,30.33 C10.841,29.23 11.736,28.33 12.841,28.33 C13.945,28.33 14.841,29.23 14.841,30.33" id="Fill-56" fill="#D0021B"></path>
                    <path d="M23.841,22.33 C23.841,23.44 22.945,24.33 21.841,24.33 C20.736,24.33 19.841,23.44 19.841,22.33 C19.841,21.23 20.736,20.33 21.841,20.33 C22.945,20.33 23.841,21.23 23.841,22.33" id="Fill-57" fill="#D0021B"></path>
                    <path d="M23.841,30.33 C23.841,31.44 22.945,32.33 21.841,32.33 C20.736,32.33 19.841,31.44 19.841,30.33 C19.841,29.23 20.736,28.33 21.841,28.33 C22.945,28.33 23.841,29.23 23.841,30.33" id="Fill-58" fill="#D0021B"></path>
                    <path d="M32.841,22.33 C32.841,23.44 31.945,24.33 30.841,24.33 C29.736,24.33 28.841,23.44 28.841,22.33 C28.841,21.23 29.736,20.33 30.841,20.33 C31.945,20.33 32.841,21.23 32.841,22.33" id="Fill-59" fill="#D0021B"></path>
                    <path d="M32.841,30.33 C32.841,31.44 31.945,32.33 30.841,32.33 C29.736,32.33 28.841,31.44 28.841,30.33 C28.841,29.23 29.736,28.33 30.841,28.33 C31.945,28.33 32.841,29.23 32.841,30.33" id="Fill-60" fill="#D0021B"></path>
                </g>
            </g>
        </g>
    </g>
</svg>