<?xml version="1.0" encoding="UTF-8"?>
<svg width="24px" height="24px" viewBox="0 0 24 24" version="1.1" xmlns="http://www.w3.org/2000/svg" xmlns:xlink="http://www.w3.org/1999/xlink">
    <!-- Generator: Sketch 51.3 (57544) - http://www.bohemiancoding.com/sketch -->
    <title>bound</title>
    <desc>Created with Sketch.</desc>
    <defs>
        <polygon id="path-1" points="0 0 24 0 24 24 0 24"></polygon>
    </defs>
    <g id="Symbols" stroke="none" stroke-width="1" fill="none" fill-rule="evenodd">
        <g id="Stockholm-icons-/-General-/-Lock">
            <mask id="mask-2" fill="white">
                <use xlink:href="#path-1"></use>
            </mask>
            <g id="bound"></g>
            <path d="M8,11 L8,9 C8,6.23857625 10.2385763,4 13,4 C15.7614237,4 18,6.23857625 18,9 L18,11 L19,11 C20.1045695,11 21,11.8954305 21,13 L21,19 C21,20.1045695 20.1045695,21 19,21 L7,21 C5.8954305,21 5,20.1045695 5,19 L5,13 C5,11.8954305 5.8954305,11 7,11 L8,11 Z M13,6 C11.3431458,6 10,7.34314575 10,9 L10,11 L16,11 L16,9 C16,7.34314575 14.6568542,6 13,6 Z" id="Mask" fill="#000000"></path>
        </g>
    </g>
</svg>